<svg width="512" height="512" viewBox="0 0 512 512" fill="none" xmlns="http://www.w3.org/2000/svg">
<circle cx="256" cy="256" r="240" fill="#FF69B4"/>
<path d="M256 160C194.667 160 160 202.667 160 256C160 309.333 194.667 352 256 352C317.333 352 352 309.333 352 256C352 202.667 317.333 160 256 160ZM256 320C213.833 320 192 298.167 192 256C192 213.833 213.833 192 256 192C298.167 192 320 213.833 320 256C320 298.167 298.167 320 256 320Z" fill="white"/>
<path d="M278 245H298L266 291H246L278 245Z" fill="#FFC0CB"/>
<path d="M234 245H214L246 291H266L234 245Z" fill="#FFC0CB"/>
</svg>
